REM DIRINDEX 1\2,1\3
REM DIRNAME cjc052,folder01,folder02
TITLE ""
FILE "Disk3Track37.mp3" MP3
  TRACK 01 AUDIO
    TITLE "2:cjc052_1366"
    INDEX 01 00:00:00
  TRACK 02 AUDIO
    TITLE "2:cjc052_1367"
    INDEX 01 00:08:66
  TRACK 03 AUDIO
    TITLE "2:cjc052_1368"
    INDEX 01 00:13:35
  TRACK 04 AUDIO
    TITLE "2:cjc052_1369"
    INDEX 01 00:24:06
  TRACK 05 AUDIO
    TITLE "2:cjc052_1370"
    INDEX 01 00:31:31
  TRACK 06 AUDIO
    TITLE "0:"
    INDEX 01 00:44:56
